<?xml version="1.0" standalone="no"?>
<!DOCTYPE svg PUBLIC "-//W3C//DTD SVG 20010904//EN"
 "http://www.w3.org/TR/2001/REC-SVG-20010904/DTD/svg10.dtd">
<svg version="1.0" xmlns="http://www.w3.org/2000/svg"
 width="700.000000pt" height="700.000000pt" viewBox="0 0 700.000000 700.000000"
 preserveAspectRatio="xMidYMid meet">
<metadata>
Created by potrace 1.11, written by Peter Selinger 2001-2013
</metadata>
<g transform="translate(0.000000,700.000000) scale(0.100000,-0.100000)"
fill="#000000" stroke="none">
<path d="M4450 6790 c0 -5 -7 -10 -16 -10 -10 0 -14 -6 -10 -15 3 -9 0 -15
-10 -15 -15 0 -14 -3 1 -26 10 -16 14 -35 11 -48 -13 -44 -36 -211 -36 -261 0
-42 -5 -56 -24 -74 -14 -13 -30 -36 -36 -52 -7 -16 -18 -29 -24 -29 -29 0 -56
-41 -56 -85 0 -48 16 -65 64 -65 17 0 26 -6 26 -16 0 -25 -62 -112 -84 -118
-12 -3 -41 -28 -66 -57 -70 -80 -144 -154 -160 -162 -27 -14 -55 -32 -90 -59
-19 -14 -46 -27 -60 -29 -38 -3 -101 12 -106 26 -3 8 -22 12 -46 12 -35 -1
-46 4 -72 34 -20 23 -58 47 -107 68 -41 18 -93 48 -115 67 -83 73 -124 113
-124 120 0 10 -79 84 -90 84 -16 0 -20 33 -5 50 8 9 15 22 15 29 0 7 14 36 30
66 17 30 30 60 30 68 0 26 -77 96 -112 101 -75 13 -128 -15 -133 -70 -1 -16
-6 -46 -10 -66 -8 -42 -22 -47 -85 -27 -84 25 -79 29 -260 -154 -31 -31 -40
-64 -40 -146 0 -53 2 -57 35 -79 31 -20 41 -38 36 -66 -1 -5 7 -18 17 -30 32
-35 33 -76 7 -155 -14 -39 -26 -90 -29 -114 -5 -54 -16 -118 -23 -137 -3 -8
-7 -19 -9 -25 -6 -23 -77 -222 -89 -250 -8 -16 -32 -77 -55 -134 -22 -57 -49
-120 -59 -140 -10 -20 -22 -52 -26 -71 -12 -53 -36 -101 -73 -143 -18 -21 -30
-42 -27 -47 7 -12 114 -11 137 1 10 5 18 18 18 28 0 15 9 20 43 24 72 8 101
18 103 35 0 4 14 36 31 72 36 76 45 98 50 123 2 11 10 28 18 40 8 12 15 31 15
42 0 12 4 25 9 31 6 5 12 20 14 34 3 14 10 37 16 53 6 15 8 27 5 27 -2 0 2 14
11 30 9 17 13 30 11 30 -6 0 68 212 90 259 12 25 18 30 25 20 8 -12 65 -180
75 -219 2 -8 13 -46 24 -85 26 -85 60 -211 66 -244 3 -14 18 -40 35 -58 22
-26 29 -44 29 -76 0 -23 13 -80 29 -127 l29 -85 58 -3 c157 -9 209 -7 209 8 0
8 -21 25 -47 37 -41 20 -48 28 -54 60 -4 21 -15 46 -25 56 -11 10 -19 21 -20
25 0 4 -2 39 -4 77 -2 47 -13 99 -35 160 -18 50 -33 95 -35 100 -1 6 -5 17 -8
25 -21 50 -70 205 -83 260 -8 36 -17 72 -19 80 -17 61 -34 143 -38 185 -2 28
-7 57 -11 65 -4 9 2 25 14 38 13 14 22 39 24 71 6 76 14 93 39 85 12 -3 67
-38 122 -77 135 -94 194 -122 270 -123 33 0 62 -2 65 -3 21 -11 247 -5 305 7
63 13 142 56 153 84 2 4 8 8 13 8 6 0 15 5 22 10 54 45 93 70 106 68 9 -2 32
-28 52 -58 30 -45 37 -64 37 -104 0 -63 -9 -78 -85 -132 -70 -50 -83 -76 -88
-182 -2 -56 -12 -87 -59 -191 -37 -82 -67 -134 -90 -156 -39 -36 -62 -103 -69
-195 -2 -30 -9 -68 -15 -83 -7 -16 -12 -33 -12 -38 0 -5 -13 -12 -28 -15 -22
-4 -33 -17 -51 -56 -25 -55 -22 -71 9 -43 26 24 34 14 31 -39 -1 -34 3 -49 21
-68 34 -35 47 -33 44 5 -2 21 9 65 31 118 19 46 36 91 38 99 7 31 37 107 67
173 l31 67 17 -37 c10 -21 29 -49 44 -62 14 -14 26 -32 26 -41 0 -10 13 -48
28 -86 15 -38 29 -89 30 -114 1 -25 5 -76 9 -115 4 -38 6 -73 5 -77 -3 -14 73
-52 105 -53 36 -1 39 7 22 52 -12 31 -14 38 -24 103 -3 25 -9 59 -12 75 -3 17
-6 40 -6 53 -1 12 -4 22 -7 22 -4 0 -8 21 -9 48 -1 26 -2 54 -3 62 -2 31 2 50
12 50 6 0 28 19 49 41 36 38 38 44 29 73 -13 42 -18 147 -7 167 4 9 11 29 13
45 3 16 10 45 16 64 5 19 10 52 10 72 0 21 8 52 18 70 28 50 60 139 68 183 3
22 17 67 30 101 13 34 26 85 28 115 2 30 9 66 14 80 17 42 22 91 11 111 -5 10
-34 36 -64 58 -69 51 -81 72 -58 100 10 11 17 23 16 25 -1 3 4 19 11 37 7 18
14 63 14 100 1 60 -1 69 -27 97 -24 26 -29 42 -36 113 -4 46 -8 110 -9 143
l-1 60 50 5 c51 5 51 9 0 35 -14 8 -19 19 -17 40 4 51 3 67 -3 73 -9 9 -25
-20 -19 -33 3 -5 -2 -1 -10 9 -9 11 -16 23 -16 28 0 4 -4 8 -10 8 -5 0 -10 -4
-10 -10z m-1656 -837 c-4 -21 -7 -44 -7 -50 0 -7 -4 -13 -9 -13 -4 0 -8 23 -8
50 0 38 4 50 15 50 13 0 15 -7 9 -37z"/>
<path d="M2728 4655 c-27 -60 -62 -103 -83 -104 -44 -3 -84 -17 -106 -38 -31
-29 -75 -38 -97 -21 -9 7 -13 8 -9 2 8 -15 -80 -12 -106 2 -12 7 -20 25 -23
52 -3 40 2 47 28 43 4 0 5 6 2 13 -5 12 -10 12 -39 0 -19 -8 -46 -14 -60 -14
-14 0 -25 -4 -25 -10 0 -5 -9 -10 -19 -10 -11 0 -23 -4 -26 -10 -3 -5 -15 -10
-27 -10 -11 0 -34 -6 -51 -14 -47 -21 -131 -51 -142 -51 -5 0 -11 -10 -13 -22
-3 -17 1 -21 11 -17 9 3 29 -2 46 -11 17 -8 31 -13 31 -9 0 4 6 1 14 -5 15
-12 46 -22 83 -25 12 -2 28 -8 36 -14 8 -7 17 -9 20 -5 4 3 12 1 19 -4 7 -5
42 -18 78 -28 36 -10 69 -22 74 -27 6 -4 18 -8 28 -8 10 0 26 -4 36 -9 9 -4
63 -23 119 -41 l101 -32 860 0 c473 0 878 3 901 7 22 4 43 11 47 16 5 10 3 10
-63 12 -25 1 -53 11 -72 25 -16 12 -35 22 -40 22 -10 0 -27 25 -31 44 -1 5 4
13 12 17 9 6 9 9 1 9 -11 0 -17 36 -27 160 -2 30 -15 82 -28 115 -21 54 -26
60 -54 63 -30 3 -33 1 -50 -50 -9 -29 -32 -91 -51 -137 -19 -46 -33 -91 -32
-100 3 -39 -1 -53 -16 -47 -8 3 -14 0 -12 -7 1 -8 -11 -12 -35 -11 -28 2 -44
10 -67 35 -17 19 -31 44 -31 56 0 14 -8 24 -22 29 -13 4 -26 12 -30 18 -13 18
-8 70 7 90 8 11 15 27 15 36 0 21 41 60 63 60 9 0 17 6 17 13 0 11 -47 14
-240 14 -133 0 -243 -4 -246 -9 -3 -4 -10 -5 -16 -2 -7 5 -8 2 -4 -5 5 -7 11
-10 14 -7 10 11 52 -37 52 -58 0 -28 11 -42 37 -50 12 -4 33 -16 47 -27 30
-24 35 -72 10 -104 -14 -18 -26 -20 -162 -19 -85 1 -156 6 -168 12 -11 6 -26
30 -33 54 -7 24 -21 62 -32 86 -10 23 -19 62 -19 86 l0 44 -186 -1 -187 0 -29
-62z"/>
<path d="M4404 4672 c12 -94 46 -263 55 -281 15 -26 14 -94 -1 -109 -16 -16
-3 -26 19 -16 10 4 25 9 33 10 48 10 76 18 80 24 4 6 174 60 232 74 9 3 26 10
37 16 12 6 21 8 21 6 0 -3 20 3 44 14 24 10 46 16 49 13 3 -2 16 1 29 9 22 13
29 14 56 17 15 1 12 36 -3 36 -13 1 -54 14 -80 25 -11 5 -42 16 -70 25 -56 19
-92 33 -117 46 -10 5 -27 9 -39 9 -11 0 -45 11 -75 25 -30 14 -61 25 -69 25
-8 0 -15 5 -15 10 0 6 -3 9 -7 8 -14 -3 -78 14 -91 25 -7 5 -15 7 -19 4 -3 -4
-12 -2 -19 3 -6 6 -22 13 -33 15 -20 4 -21 1 -17 -33z"/>
<path d="M3834 4648 l-19 -23 23 19 c21 18 27 26 19 26 -2 0 -12 -10 -23 -22z"/>
<path d="M3510 4556 c0 -2 8 -10 18 -17 15 -13 16 -12 3 4 -13 16 -21 21 -21
13z"/>
<path d="M3338 4453 c7 -3 16 -2 19 1 4 3 -2 6 -13 5 -11 0 -14 -3 -6 -6z"/>
<path d="M1587 4179 c-99 -98 -181 -179 -182 -179 -1 0 -41 -38 -89 -85 -79
-78 -108 -125 -74 -125 6 0 30 -9 52 -19 23 -11 66 -30 96 -44 30 -13 78 -35
105 -48 28 -12 55 -24 60 -25 11 -2 35 -12 175 -76 36 -17 87 -39 113 -49 26
-10 59 -26 72 -35 13 -8 25 -15 27 -14 2 1 16 -3 31 -9 16 -6 31 -11 35 -11 4
0 18 -9 32 -20 14 -11 33 -20 43 -20 9 0 38 -11 65 -24 94 -48 165 -77 181
-74 9 2 17 12 18 23 6 65 12 94 22 113 6 12 9 22 6 22 -3 0 -1 8 4 19 6 10 12
33 13 50 1 17 5 31 9 31 3 0 5 12 4 28 -1 15 2 32 7 39 5 6 11 22 13 35 5 26
12 58 20 88 3 11 7 29 9 40 3 11 8 25 11 31 4 5 9 20 11 32 2 12 8 42 14 67 6
25 13 56 16 69 3 13 8 31 12 40 4 9 7 23 6 31 -1 8 -2 20 -3 26 -1 13 -65 44
-91 44 -10 0 -21 4 -25 9 -3 6 -27 13 -53 17 -25 4 -61 15 -79 25 -18 10 -33
17 -33 14 0 -3 -24 4 -52 14 -53 19 -106 33 -110 29 -2 -1 -14 5 -28 12 -26
15 -36 17 -83 24 -16 3 -34 9 -40 15 -7 5 -14 9 -17 9 -3 -1 -30 7 -60 17 -30
11 -61 20 -69 21 -8 2 -95 -78 -194 -177z"/>
<path d="M5158 4339 c-10 -5 -18 -7 -18 -4 0 3 -10 0 -22 -7 -13 -7 -27 -12
-33 -13 -5 0 -30 -7 -55 -15 -25 -7 -47 -14 -50 -15 -3 0 -15 -6 -26 -13 -12
-6 -23 -9 -26 -7 -2 3 -28 -4 -56 -15 -29 -11 -52 -17 -52 -13 0 4 -5 2 -12
-5 -7 -7 -20 -12 -30 -12 -10 0 -27 -4 -38 -10 -11 -5 -28 -14 -38 -19 -10 -5
-37 -12 -60 -16 -23 -4 -44 -11 -48 -16 -3 -5 -15 -9 -26 -9 -12 0 -39 -8 -60
-17 -32 -14 -38 -21 -33 -38 4 -11 8 -33 10 -50 8 -67 15 -99 24 -108 5 -5 7
-16 4 -23 -3 -8 -1 -20 5 -27 5 -6 13 -34 17 -62 4 -27 13 -61 20 -75 7 -14
11 -35 9 -47 -2 -13 0 -23 4 -23 4 0 9 -12 10 -26 1 -15 7 -33 13 -40 6 -8 9
-14 6 -14 -3 0 -1 -15 5 -32 5 -18 9 -45 9 -60 -1 -16 3 -28 9 -28 5 0 10 -15
10 -33 0 -18 4 -37 9 -42 5 -6 11 -23 13 -39 3 -32 37 -60 45 -38 3 6 12 12
21 12 10 0 38 11 65 24 26 14 61 27 77 31 17 4 30 11 30 16 0 5 7 9 15 9 8 0
30 9 50 20 19 11 38 20 43 21 4 1 16 5 27 9 11 4 22 7 25 7 3 -1 19 6 35 15
17 9 48 24 70 33 22 10 73 32 113 51 39 19 75 34 78 34 4 0 28 9 53 21 81 37
135 61 166 74 17 8 55 25 86 39 31 14 63 26 72 26 10 0 17 5 17 10 0 6 7 10
15 10 9 0 15 9 15 23 0 23 -73 97 -435 441 -103 99 -132 112 -177 85z"/>
<path d="M2669 4088 c-1 -5 -2 -11 -4 -15 -1 -5 -5 -21 -10 -38 -4 -16 -11
-34 -15 -40 -4 -5 -11 -38 -15 -72 -4 -35 -11 -63 -16 -63 -5 0 -9 -13 -9 -29
0 -17 -5 -33 -11 -37 -6 -3 -9 -17 -6 -30 2 -14 0 -27 -4 -30 -5 -3 -9 -17 -9
-31 0 -24 -10 -64 -30 -118 -17 -45 -42 -166 -36 -172 3 -3 2 -11 -3 -17 -6
-7 -12 -23 -14 -36 -3 -14 -6 -29 -7 -35 -10 -44 -67 -42 1020 -42 1131 0
1041 -6 1013 65 -8 18 -11 37 -7 43 3 5 1 15 -4 22 -6 7 -13 24 -15 37 -2 14
-7 33 -12 43 -4 10 -5 20 -2 23 3 3 -1 23 -8 45 -8 21 -12 39 -8 39 3 0 0 6
-6 13 -6 8 -13 31 -17 52 -10 65 -13 77 -22 89 -5 6 -8 20 -6 31 1 10 -2 25
-7 32 -6 6 -13 24 -15 38 -9 55 -12 71 -21 95 -5 14 -9 32 -8 40 1 8 -4 27
-11 41 -7 15 -11 29 -8 31 2 3 -3 11 -12 19 -14 12 -151 14 -836 14 -450 0
-819 -3 -819 -7z"/>
<path d="M5710 3616 c-14 -6 -28 -14 -31 -19 -3 -5 -9 -8 -13 -8 -18 2 -66
-13 -66 -20 0 -5 -8 -9 -18 -9 -10 0 -22 -3 -26 -7 -4 -5 -11 -8 -14 -8 -4 -1
-29 -12 -57 -25 -27 -13 -52 -24 -55 -25 -3 -1 -18 -7 -33 -13 -16 -7 -31 -12
-34 -12 -3 0 -31 -13 -62 -29 -31 -15 -67 -32 -81 -36 -14 -4 -54 -21 -90 -37
-36 -16 -81 -37 -100 -45 -19 -8 -46 -21 -60 -28 -14 -7 -39 -16 -57 -19 -17
-4 -37 -14 -44 -22 -6 -8 -20 -14 -30 -14 -10 0 -48 -16 -84 -35 -36 -19 -65
-32 -65 -28 0 19 -35 -30 -61 -86 -32 -70 -34 -74 -67 -136 -24 -46 -145 -297
-147 -305 0 -3 -42 -88 -91 -190 -50 -102 -97 -200 -105 -217 -8 -18 -17 -33
-21 -33 -5 0 -8 -5 -8 -12 0 -16 -82 -181 -95 -190 -5 -4 -7 -8 -2 -8 4 0 0
-11 -9 -25 -9 -14 -13 -25 -9 -25 3 0 -2 -12 -13 -27 -11 -16 -21 -32 -22 -38
-4 -15 -59 -137 -76 -165 -8 -14 -30 -59 -50 -100 -19 -41 -40 -84 -46 -95 -6
-11 -33 -65 -60 -120 -26 -55 -61 -126 -78 -157 -16 -31 -30 -61 -30 -67 0
-21 30 -11 47 16 10 16 22 33 28 39 5 6 24 29 40 50 17 21 44 54 61 74 17 19
39 46 50 58 10 13 26 32 34 42 8 9 31 36 50 60 19 23 46 54 60 69 14 15 70 81
125 146 55 66 106 127 115 136 8 9 24 29 35 45 18 25 48 60 149 174 17 19 40
48 50 64 10 16 28 39 40 50 12 12 38 42 59 68 21 26 50 60 65 76 42 46 103
120 145 176 21 27 48 60 60 71 12 11 34 36 48 55 15 19 39 49 53 65 15 17 75
88 134 159 59 72 126 151 150 176 23 26 42 49 42 52 0 3 25 32 55 64 30 33 55
64 55 71 0 7 6 16 13 20 7 4 71 78 143 163 71 85 135 161 141 168 31 32 9 48
-37 28z"/>
<path d="M1267 3593 c8 -21 65 -95 137 -177 28 -32 58 -67 66 -78 18 -24 47
-58 134 -160 36 -42 66 -80 66 -83 0 -3 13 -18 28 -33 16 -15 50 -55 75 -89
26 -34 53 -68 60 -75 7 -7 60 -69 117 -138 58 -69 110 -130 115 -136 6 -6 26
-31 45 -54 19 -24 43 -52 53 -62 9 -10 17 -20 17 -23 0 -2 10 -15 23 -29 12
-14 33 -39 47 -56 14 -17 33 -38 43 -48 11 -9 33 -37 49 -62 17 -25 41 -54 52
-65 12 -11 32 -33 45 -50 12 -16 37 -46 55 -65 29 -32 84 -99 154 -189 15 -19
44 -52 66 -75 21 -23 49 -58 62 -78 14 -21 28 -38 32 -38 5 0 22 -19 39 -42
34 -47 83 -106 126 -152 15 -16 27 -32 27 -36 0 -3 13 -19 28 -36 15 -16 48
-54 72 -84 25 -30 52 -62 60 -71 8 -9 33 -39 55 -67 36 -47 62 -68 72 -59 2 2
-10 30 -26 63 -16 32 -37 78 -47 102 -10 23 -21 42 -26 42 -4 0 -8 7 -8 15 0
17 -20 56 -33 66 -5 3 -8 8 -6 10 2 4 -30 77 -67 152 -13 27 -24 55 -24 62 0
7 -4 15 -9 17 -7 3 -47 81 -125 248 -14 30 -34 71 -44 90 -19 34 -75 150 -77
160 -2 8 -95 203 -108 225 -17 31 -103 206 -118 243 -8 17 -17 32 -21 32 -5 0
-8 5 -8 11 0 6 -30 73 -67 148 -37 75 -68 139 -69 144 -1 4 -3 10 -4 15 -1 4
-2 10 -1 15 0 4 -3 7 -7 7 -8 0 -46 77 -47 95 0 6 -25 22 -55 37 -83 40 -168
78 -175 78 -4 0 -49 20 -101 45 -51 25 -96 45 -100 45 -3 0 -35 14 -71 30 -35
17 -67 30 -71 30 -4 0 -40 16 -79 35 -40 19 -79 35 -88 35 -8 0 -15 5 -15 12
0 6 -3 9 -6 5 -4 -3 -24 3 -45 14 -22 11 -39 16 -39 13 0 -4 -9 1 -21 12 -12
10 -23 18 -25 17 -9 -6 -23 -2 -36 10 -16 15 -108 47 -137 47 -15 0 -19 -4
-14 -17z"/>
<path d="M2507 3138 c-8 -5 -6 -17 6 -43 9 -20 17 -40 17 -46 0 -6 9 -23 19
-38 11 -15 23 -39 26 -54 4 -15 10 -27 14 -27 3 0 12 -15 20 -32 7 -18 38 -85
69 -148 74 -157 106 -224 107 -230 1 -3 23 -50 50 -105 27 -55 50 -102 50
-105 1 -3 24 -51 53 -108 28 -56 51 -103 50 -105 0 -1 8 -22 20 -47 11 -25 20
-49 20 -54 0 -5 4 -12 9 -15 5 -3 23 -35 40 -71 107 -222 127 -266 128 -270 0
-3 27 -59 59 -125 32 -66 65 -138 74 -160 8 -22 21 -47 27 -55 7 -8 23 -40 36
-70 13 -30 27 -56 31 -58 4 -2 8 -10 8 -19 0 -8 8 -27 18 -41 10 -15 22 -35
25 -46 6 -15 10 -16 22 -6 8 6 17 22 21 33 4 12 15 34 26 50 11 15 16 27 12
27 -3 0 -1 7 6 15 7 8 9 15 4 15 -5 0 -2 6 7 13 13 10 25 30 34 57 8 24 23 57
57 127 22 45 40 86 40 90 0 4 8 19 17 33 9 14 22 36 28 50 16 35 102 216 159
335 26 55 48 102 49 105 0 3 20 43 43 89 23 46 42 89 42 94 0 6 8 19 17 30 10
10 18 24 18 30 1 12 58 137 76 167 5 8 12 22 15 30 3 8 26 56 50 106 24 49 44
96 44 102 0 7 3 12 8 12 4 0 12 12 19 28 13 30 34 84 35 92 1 3 8 10 17 17 9
7 13 13 9 13 -4 0 13 40 37 90 25 49 45 94 45 100 0 5 5 10 12 10 6 0 9 3 5 6
-3 4 3 24 13 45 28 53 26 69 -7 70 -205 4 -1948 2 -1956 -3z"/>
<path d="M1857 1114 c-1 -1 -16 -4 -33 -7 -87 -14 -135 -91 -104 -167 14 -33
77 -72 140 -85 53 -11 90 -33 90 -54 0 -27 -24 -43 -62 -39 -24 2 -38 11 -53
36 -19 31 -22 32 -80 29 -69 -3 -72 -9 -41 -74 27 -57 69 -77 167 -79 90 -2
145 18 178 64 26 37 31 111 8 145 -18 29 -84 62 -161 81 -62 16 -82 32 -64 53
19 24 66 15 89 -16 20 -27 24 -28 78 -24 31 3 58 7 60 9 10 9 -27 79 -50 97
-22 16 -151 41 -162 31z"/>
<path d="M2318 1109 c-105 -16 -158 -78 -166 -194 -10 -153 57 -234 198 -242
105 -5 162 22 201 99 10 21 19 39 19 42 0 6 -91 36 -112 36 -10 0 -18 -6 -18
-14 0 -25 -34 -55 -68 -61 -26 -4 -38 0 -57 19 -24 25 -28 41 -28 119 1 54 30
91 76 95 34 3 68 -17 78 -46 4 -12 97 3 113 19 14 13 -22 72 -61 99 -40 28
-108 38 -175 29z"/>
<path d="M1242 1100 c-4 -3 -7 -26 -7 -52 -1 -53 -3 -52 88 -49 l47 1 1 -92
c0 -51 0 -123 1 -160 l0 -68 69 0 69 0 0 158 0 159 60 0 c33 0 63 3 67 7 5 5
7 40 4 89 -1 10 -43 13 -196 13 -108 0 -199 -3 -203 -6z"/>
<path d="M2975 1101 c-3 -2 -5 -26 -5 -53 0 -53 -7 -50 93 -50 l47 -1 -1 -154
c-1 -85 2 -157 6 -161 10 -11 125 -8 126 3 1 5 3 73 4 150 1 77 3 146 4 153 1
9 17 12 54 11 82 -2 78 -5 75 54 l-3 52 -198 1 c-109 0 -200 -2 -202 -5z"/>
<path d="M3688 1079 c-51 -26 -58 -33 -58 -59 0 -25 -4 -30 -23 -30 -20 0 -23
-5 -23 -45 -1 -41 1 -45 23 -45 22 0 23 -3 23 -80 0 -141 27 -162 183 -141 4
1 6 18 4 39 -2 29 -7 37 -22 38 -11 1 -25 2 -31 3 -7 1 -12 28 -13 70 l-2 70
33 3 c31 3 33 5 34 46 2 41 1 42 -31 42 l-33 0 -1 56 c0 31 -2 58 -3 59 -2 2
-29 -10 -60 -26z"/>
<path d="M4638 1080 c-7 -53 -1 -58 63 -58 l59 1 0 42 0 41 -59 0 c-56 0 -60
-2 -63 -26z"/>
<path d="M3940 993 c-38 -11 -63 -30 -77 -56 -8 -16 -13 -30 -11 -32 2 -2 27
-6 56 -10 43 -5 56 -3 66 10 18 26 96 22 96 -5 0 -7 -29 -21 -50 -25 -157 -24
-202 -68 -165 -158 19 -46 141 -60 198 -22 23 15 25 14 29 -3 4 -15 14 -18 54
-16 27 1 53 2 57 3 5 0 5 11 2 22 -4 12 -8 67 -9 123 -2 106 -12 138 -49 158
-22 11 -168 20 -197 11z m130 -187 c0 -24 -40 -65 -63 -64 -54 3 -56 41 -3 64
40 17 66 17 66 0z"/>
<path d="M4420 993 c-8 -3 -25 -15 -37 -26 l-23 -20 0 21 c0 20 -5 22 -57 22
l-58 0 1 -152 c1 -84 2 -155 3 -159 1 -3 22 -4 49 -3 72 3 73 3 71 17 -1 6 -1
48 0 93 1 94 14 120 54 110 26 -6 26 -7 29 -113 l3 -107 50 -1 c28 -1 55 0 61
2 13 5 13 220 0 265 -12 41 -92 69 -146 51z"/>
<path d="M5363 980 c-27 -16 -33 -17 -33 -5 0 12 -14 15 -60 15 l-61 0 3 -157
3 -157 53 -1 c29 -1 56 4 60 9 4 6 7 50 7 97 1 91 12 119 46 119 28 0 33 -17
34 -119 1 -53 3 -98 4 -101 1 -4 91 -5 112 -1 4 0 7 41 7 90 0 94 11 131 41
131 32 0 38 -22 37 -118 0 -53 3 -97 9 -100 6 -4 34 -7 63 -7 l52 0 0 123 c0
137 -11 172 -57 189 -47 18 -85 14 -123 -11 -35 -23 -36 -23 -52 -5 -23 29
-104 34 -145 9z"/>
<path d="M3422 833 l3 -158 57 0 c55 0 58 1 59 25 1 39 1 232 0 263 -1 26 -2
27 -61 27 l-61 0 3 -157z"/>
<path d="M4639 988 c-5 -15 -3 -287 3 -299 5 -11 21 -15 60 -14 l53 1 3 157 3
157 -61 0 c-33 0 -60 -1 -61 -2z"/>
<path d="M4820 875 c0 -135 12 -175 59 -195 41 -17 109 -6 139 23 17 16 23 18
22 7 -1 -8 -2 -20 -1 -25 1 -12 96 -14 107 -3 3 4 7 75 8 157 l1 151 -62 0
-63 0 0 -82 c0 -46 -3 -93 -6 -106 -7 -25 -49 -41 -66 -24 -6 6 -11 56 -12
111 l-1 101 -62 0 -63 0 0 -115z"/>
<path d="M1256 483 c-3 -3 -6 -68 -6 -144 l0 -137 28 -4 c56 -8 68 2 67 60
l-1 52 48 0 48 0 0 -54 c0 -49 2 -55 23 -58 12 -2 32 -2 45 0 22 4 22 7 22
147 l0 142 -42 -1 -43 -1 -3 -47 c-3 -49 -5 -50 -52 -50 -46 0 -47 1 -46 50
l1 47 -41 2 c-23 2 -44 0 -48 -4z"/>
<path d="M1849 465 c-3 -85 0 -255 4 -262 3 -5 23 -7 44 -5 l38 4 -2 96 c-1
53 -2 118 -2 144 l-1 47 -40 -2 c-33 -1 -40 -5 -41 -22z"/>
<path d="M2670 458 c0 -26 3 -28 39 -28 29 0 40 4 44 19 7 29 -6 40 -46 38
-33 -2 -37 -5 -37 -29z"/>
<path d="M3244 343 l0 -143 41 -1 c108 -2 179 2 185 12 4 6 5 21 2 34 -4 22
-10 24 -70 27 l-67 3 -1 100 c-1 55 -2 103 -3 106 0 4 -20 6 -44 5 l-43 -1 0
-142z"/>
<path d="M3549 479 c-6 -38 -3 -44 21 -44 20 0 26 6 28 26 3 23 -1 27 -22 27
-15 0 -27 -4 -27 -9z"/>
<path d="M3630 459 c0 -24 4 -28 27 -26 18 2 27 9 29 25 2 12 1 23 -4 23 -46
8 -52 6 -52 -22z"/>
<path d="M3771 346 c1 -78 2 -143 4 -146 2 -3 22 -4 44 -2 27 3 39 8 34 16 -5
7 -2 7 8 -1 8 -7 31 -13 51 -15 44 -2 74 20 87 67 25 92 -26 158 -109 141 -26
-5 -30 -2 -31 17 -3 63 -2 62 -46 63 l-43 0 1 -140z m148 -20 c10 -25 -6 -76
-23 -76 -32 0 -47 51 -26 90 13 23 38 16 49 -14z"/>
<path d="M4573 478 c-4 -7 -8 -72 -8 -145 l-1 -131 33 -4 c42 -5 50 0 55 37 4
40 29 39 47 -2 10 -24 21 -32 45 -35 64 -7 68 -2 39 50 -14 26 -32 56 -39 66
-11 16 -10 21 12 38 13 11 29 28 34 38 9 16 5 18 -39 16 -40 -1 -53 -7 -74
-31 l-26 -30 -1 70 0 71 -34 2 c-19 2 -38 -3 -43 -10z"/>
<path d="M5390 478 c0 -7 22 -72 49 -143 52 -140 60 -148 125 -135 27 5 32 14
65 105 20 55 39 105 42 110 4 6 10 24 13 42 l7 31 -45 -1 -45 -2 -27 -92 c-16
-50 -31 -90 -34 -88 -3 2 -17 39 -30 82 -13 43 -27 82 -32 87 -13 16 -88 18
-88 4z"/>
<path d="M2268 462 c-17 -10 -28 -25 -28 -39 0 -14 -5 -21 -13 -17 -9 3 -14
-7 -15 -31 -2 -26 1 -35 13 -35 11 0 15 -11 15 -44 0 -87 22 -108 103 -97 35
4 40 48 5 53 -18 2 -22 10 -23 41 -2 32 2 41 21 49 34 16 29 68 -6 68 -14 0
-17 7 -15 35 2 40 -13 45 -57 17z"/>
<path d="M1612 385 c-59 -50 -51 -144 17 -176 39 -19 122 -10 150 16 23 20 36
73 27 108 -12 48 -43 70 -104 75 -51 4 -62 1 -90 -23z m115 -61 c15 -40 -32
-93 -60 -65 -14 14 -13 67 2 85 15 18 48 6 58 -20z"/>
<path d="M1995 385 c-28 -27 -30 -37 -14 -66 11 -21 40 -35 92 -44 37 -7 41
-10 32 -24 -9 -15 -31 -14 -48 3 -10 10 -27 13 -55 9 -36 -5 -40 -8 -31 -24
16 -30 48 -42 113 -40 67 1 106 26 106 67 0 39 -25 56 -104 68 -33 6 -40 11
-32 24 7 11 46 4 46 -8 0 -8 71 -2 80 7 3 3 -8 16 -23 29 -41 35 -127 35 -162
-1z"/>
<path d="M2455 401 c-72 -30 -82 -155 -15 -191 35 -19 129 -15 158 7 15 11 27
24 27 29 0 13 -71 17 -92 5 -12 -6 -25 -6 -36 0 -35 20 -15 29 62 29 l79 0 -5
38 c-6 56 -50 92 -111 91 -26 0 -56 -4 -67 -8z m85 -45 c0 -2 3 -11 6 -19 4
-12 -3 -15 -30 -15 -20 0 -36 1 -36 3 0 19 17 35 36 35 13 0 24 -2 24 -4z"/>
<path d="M2670 303 l0 -103 40 0 c22 0 40 3 41 8 1 10 1 152 0 179 -1 20 -6
23 -41 21 l-40 -1 0 -104z"/>
<path d="M2799 356 c-2 -168 -3 -165 54 -158 33 4 33 4 32 55 -2 73 4 89 29
85 19 -3 21 -10 24 -69 l3 -67 35 -4 c19 -2 38 -2 42 1 10 7 8 125 -2 167 -5
21 -15 34 -29 38 -35 9 -72 7 -84 -5 -7 -7 -17 -8 -25 -3 -7 5 -28 9 -45 10
l-33 2 -1 -52z"/>
<path d="M3506 401 c-2 -3 -3 -43 -2 -89 2 -99 14 -116 77 -114 24 1 47 8 52
15 7 9 10 9 14 0 2 -8 22 -13 44 -13 l39 0 -3 103 -2 102 -41 0 -42 1 2 -51
c3 -59 -11 -97 -33 -93 -12 2 -17 20 -21 73 l-5 70 -38 1 c-21 1 -39 -2 -41
-5z"/>
<path d="M4084 396 c-33 -15 -54 -56 -54 -108 0 -36 48 -88 82 -89 96 -4 129
5 148 41 8 14 3 17 -35 18 -24 1 -46 -2 -49 -7 -8 -12 -54 -1 -60 15 -4 11 11
14 79 14 l84 0 -5 27 c-8 45 -27 77 -54 90 -32 16 -97 16 -136 -1z m98 -54 c4
-15 -1 -19 -28 -20 -32 -1 -45 14 -27 31 14 14 51 7 55 -11z"/>
<path d="M4340 388 c-32 -22 -35 -28 -38 -79 -3 -49 0 -57 26 -83 26 -24 37
-28 90 -27 33 0 70 6 81 12 21 14 45 56 33 62 -22 10 -70 6 -82 -7 -16 -20
-44 -20 -59 -2 -18 21 -9 67 15 83 19 12 24 12 37 -2 22 -21 97 -17 89 5 -15
38 -42 54 -99 58 -49 3 -64 0 -93 -20z"/>
<path d="M5030 383 c-36 -33 -46 -91 -24 -134 20 -39 43 -49 112 -49 45 0 66
5 86 21 14 11 26 24 26 28 0 11 -66 12 -93 2 -14 -5 -30 -5 -40 0 -35 20 -15
29 62 29 l79 0 -5 38 c-3 24 -14 46 -34 65 -25 23 -38 27 -84 27 -46 0 -60 -5
-85 -27z m110 -27 c0 -2 3 -11 6 -20 5 -12 -1 -16 -24 -16 -34 0 -52 18 -31
31 14 9 49 12 49 5z"/>
<path d="M5270 241 c0 -33 4 -40 23 -43 57 -9 78 9 69 60 -4 19 -11 22 -48 22
l-44 0 0 -39z"/>
<path d="M5662 246 c-2 -41 14 -54 61 -48 31 3 33 6 32 40 -2 36 -3 37 -47 40
l-45 3 -1 -35z"/>
</g>
</svg>
